<svg viewBox="-640 -288.5 1280 577" width="2560" height="1154" style="background-color: rgb(255, 255, 255);" xmlns="http://www.w3.org/2000/svg"><path d="M-113.58348095770555,3.867317374708057L-125.61805355272264,2.181805603585392M-125.61805355272264,-66.01977245442522L-125.61805355272264,2.181805603585392M-125.61805355272264,2.181805603585392L-151.85411770149432,27.158183717855486M-113.58348095770555,-64.33426068330255L-113.58348095770555,3.867317374708057M-113.58348095770555,3.867317374708057L-139.81954510647722,28.84369548897816" style="fill:none;stroke:rgb(0,0,0);stroke-width:1;stroke-linecap:round"></path><path d="M-113.58348095770558,3.867317374708058L-125.61805355272267,2.181805603585393L-125.61805355272267,-66.01977245442521zM-113.58348095770558,-64.33426068330255L-113.58348095770558,3.867317374708058L-125.61805355272267,-66.01977245442521z" style="fill:rgb(238,238,238); fill-opacity: 0.4"></path><path d="M-50.135334345057615,7.621930888618878L-100.13475602968548,0.6192215581969573M-100.13475602968548,-49.884163500278255L-100.13475602968548,0.6192215581969573M-100.13475602968548,0.6192215581969573L-119.56260635005856,19.11427221814132" style="fill:none;stroke:rgb(0,0,0);stroke-width:1;stroke-linecap:round"></path><path d="M-151.85411770149432,27.15818371785549L-125.61805355272267,2.181805603585393L-113.58348095770558,3.867317374708058z" style="fill:rgb(238,238,238); fill-opacity: 0.4"></path><path d="M-113.58348095770555,-64.33426068330255L-125.61805355272264,-66.01977245442522M-125.61805355272264,-66.01977245442522L-151.85411770149432,-41.04339434015511M-113.58348095770555,-64.33426068330255L-139.81954510647722,-39.357882569032455" style="fill:none;stroke:rgb(0,0,0);stroke-width:1;stroke-linecap:round"></path><path d="M-139.81954510647722,28.843695488978156L-113.58348095770558,3.867317374708058L-113.58348095770558,-64.33426068330255zM-50.13533434505761,7.621930888618879L-100.13475602968546,0.619221558196958L-100.13475602968546,-49.884163500278255zM-125.61805355272267,-66.01977245442521L-125.61805355272267,2.181805603585393L-151.85411770149432,-41.04339434015511z" style="fill:rgb(238,238,238); fill-opacity: 0.4"></path><path d="M-50.135334345057615,-42.88145416985633L-50.135334345057615,7.621930888618878M-50.135334345057615,7.621930888618878L-69.56318466543071,26.11698154856324M-50.135334345057615,-42.88145416985633L-100.13475602968548,-49.884163500278255M-100.13475602968548,-49.884163500278255L-119.56260635005856,-31.389112840333894" style="fill:none;stroke:rgb(0,0,0);stroke-width:1;stroke-linecap:round"></path><path d="M-119.56260635005856,19.114272218141316L-100.13475602968546,0.619221558196958L-50.13533434505761,7.621930888618879zM-139.81954510647722,28.843695488978156L-151.85411770149432,27.15818371785549L-113.58348095770558,3.867317374708058z" style="fill:rgb(238,238,238); fill-opacity: 0.4"></path><path d="M-58.02956949276581,1.4677034784270513L-108.02899117739365,-5.535005851994868M-108.02899117739365,-18.13774776283616L-108.02899117739365,-5.535005851994868M-108.02899117739365,-5.535005851994868L-112.87706587944828,-0.9197043266548738" style="fill:none;stroke:rgb(0,0,0);stroke-width:1;stroke-linecap:round"></path><path d="M-50.13533434505761,-42.881454169856326L-50.13533434505761,7.621930888618879L-100.13475602968546,-49.884163500278255zM-139.81954510647722,-39.35788256903245L-113.58348095770558,-64.33426068330255L-125.61805355272267,-66.01977245442521zM-100.13475602968546,-49.884163500278255L-100.13475602968546,0.619221558196958L-119.56260635005856,-31.389112840333894zM-125.61805355272267,2.181805603585393L-151.85411770149432,27.15818371785549L-151.85411770149432,-41.04339434015511z" style="fill:rgb(238,238,238); fill-opacity: 0.4"></path><path d="M-58.02956949276581,-11.135038432414243L-108.02899117739365,-18.13774776283616M-108.02899117739365,-18.13774776283616L-112.87706587944828,-13.522446237496169M25.736562759335946,15.648267115186664L-35.007194498272284,7.140751200387273M-35.007194498272284,-34.395830551362586L-35.007194498272284,7.140751200387273M-35.007194498272284,7.140751200387273L-50.98565796480215,22.35203224323324" style="fill:none;stroke:rgb(0,0,0);stroke-width:1;stroke-linecap:round"></path><path d="M-108.02899117739366,-18.13774776283616L-108.02899117739366,-5.535005851994869L-112.87706587944828,-13.522446237496169zM-58.02956949276581,1.467703478427051L-108.02899117739366,-5.535005851994869L-108.02899117739366,-18.13774776283616zM-108.02899117739366,-5.535005851994869L-112.87706587944828,-0.919704326654877L-112.87706587944828,-13.522446237496169z" style="fill:rgb(153,221,255); fill-opacity: 0.4"></path><path d="M-130.7129893641449,-17.493631765114422L-142.747561959162,-19.17914353623709M-142.747561959162,-46.90517574008793L-142.747561959162,-19.17914353623709M-142.747561959162,-19.17914353623709L-153.41332630368217,-9.025480180489103" style="fill:none;stroke:rgb(0,0,0);stroke-width:1;stroke-linecap:round"></path><path d="M-112.87706587944828,-0.919704326654877L-108.02899117739366,-5.535005851994869L-58.02956949276581,1.467703478427051z" style="fill:rgb(153,221,255); fill-opacity: 0.4"></path><path d="M-112.87706587944828,-13.522446237496169L-112.87706587944828,-0.9197043266548738M-112.87706587944828,-0.9197043266548738L-62.87764419482044,6.083005003767044M-50.135334345057615,-42.88145416985633L-69.56318466543071,-24.386403509911975" style="fill:none;stroke:rgb(0,0,0);stroke-width:1;stroke-linecap:round"></path><path d="M-100.13475602968546,0.619221558196958L-119.56260635005856,19.114272218141316L-119.56260635005856,-31.389112840333894z" style="fill:rgb(238,238,238); fill-opacity: 0.4"></path><path d="M-130.7129893641449,-45.219663968965264L-130.7129893641449,-17.493631765114422M-130.7129893641449,-17.493631765114422L-141.37875370866507,-7.3399684093664375M-130.71298991231086,-45.21966279639991L-130.71298991231086,-17.493631794440198M-130.71298991231086,-17.493631794440198L-141.37875456506333,-7.339968145259239M-130.71298991231086,-17.493631794440198L-116.76819574957321,-21.704782672675176" style="fill:none;stroke:rgb(0,0,0);stroke-width:1;stroke-linecap:round"></path><path d="M-130.7129893641449,-17.493631765114422L-142.747561959162,-19.179143536237085L-142.747561959162,-46.90517574008792zM-58.02956949276581,-11.135038432414243L-58.02956949276581,1.467703478427051L-108.02899117739366,-18.13774776283616z" style="fill:rgb(153,221,255); fill-opacity: 0.4"></path><path d="M-69.56318466543071,26.11698154856324L-50.13533434505761,7.621930888618879L-50.13533434505761,-42.881454169856326z" style="fill:rgb(238,238,238); fill-opacity: 0.4"></path><path d="M-112.87706587944828,-13.522446237496169L-62.87764419482044,-6.519736907074248M-151.85411770149432,-41.04339434015511L-151.85411770149432,27.158183717855486M-151.85411770149432,27.158183717855486L-139.81954510647722,28.84369548897816M-58.029570637725456,-11.135038619549118L-58.029570637725456,1.467703491607363M-58.029570637725456,1.467703491607363L-62.87764533978009,6.083005016947358M-58.029570637725456,1.467703491607363L-43.49347265202824,-1.2054430114790204M-58.02956949276581,-11.135038432414243L-58.02956949276581,1.4677034784270513M-58.02956949276581,1.4677034784270513L-62.87764419482044,6.083005003767044" style="fill:none;stroke:rgb(0,0,0);stroke-width:1;stroke-linecap:round"></path><path d="M25.736562759335953,15.648267115186664L-35.00719449827228,7.140751200387273L-35.00719449827228,-34.395830551362586zM-139.81954510647722,-39.35788256903245L-139.81954510647722,28.843695488978156L-113.58348095770558,-64.33426068330255z" style="fill:rgb(238,238,238); fill-opacity: 0.4"></path><path d="M-112.87706587944828,-13.522446237496169L-62.87764419482044,-6.519736907074247L-108.02899117739366,-18.13774776283616z" style="fill:rgb(153,221,255); fill-opacity: 0.4"></path><path d="M-69.56318466543071,26.11698154856324L-119.56260635005856,19.114272218141316L-50.13533434505761,7.621930888618879z" style="fill:rgb(238,238,238); fill-opacity: 0.4"></path><path d="M-62.87764419482044,6.083005003767044L-112.87706587944828,-0.919704326654877L-58.02956949276581,1.467703478427051zM-153.41332630368217,-9.025480180489103L-142.747561959162,-19.179143536237085L-130.7129893641449,-17.493631765114422zM-130.7129893641449,-45.219663968965264L-130.7129893641449,-17.493631765114422L-142.747561959162,-46.90517574008792z" style="fill:rgb(153,221,255); fill-opacity: 0.4"></path><path d="M-130.7129893641449,-45.219663968965264L-142.747561959162,-46.90517574008793M-142.747561959162,-46.90517574008793L-153.41332630368217,-36.75151238433994" style="fill:none;stroke:rgb(0,0,0);stroke-width:1;stroke-linecap:round"></path><path d="M-62.87764419482044,-6.519736907074247L-58.02956949276581,-11.135038432414243L-108.02899117739366,-18.13774776283616zM-112.87706587944828,-13.522446237496169L-112.87706587944828,-0.919704326654877L-62.87764419482044,-6.519736907074247z" style="fill:rgb(153,221,255); fill-opacity: 0.4"></path><path d="M-139.81954510647722,-39.357882569032455L-139.81954510647722,28.84369548897816M25.736562759335946,-25.88831463656319L-35.007194498272284,-34.395830551362586M-35.007194498272284,-34.395830551362586L-50.98565796480215,-19.18454950851662M-119.56260635005856,-31.389112840333894L-119.56260635005856,19.11427221814132M-119.56260635005856,19.11427221814132L-69.56318466543071,26.11698154856324M-58.029570637725456,-11.135038619549118L-62.87764533978009,-6.519737094209122M-58.029570637725456,-11.135038619549118L-43.49347265202824,-1.2054430114790204M-58.02956949276581,-11.135038432414243L-62.87764419482044,-6.519736907074248" style="fill:none;stroke:rgb(0,0,0);stroke-width:1;stroke-linecap:round"></path><path d="M-69.56318466543071,-24.386403509911975L-50.13533434505761,-42.881454169856326L-100.13475602968546,-49.884163500278255z" style="fill:rgb(238,238,238); fill-opacity: 0.4"></path><path d="M-130.71298927187817,-17.49363175219193L-130.71298927187817,-45.21966395604277L-116.76819533564127,-21.70478249721334z" style="fill:rgb(255,187,187); fill-opacity: 0.4"></path><path d="M-62.87764419482044,6.083005003767044L-58.02956949276581,1.467703478427051L-58.02956949276581,-11.135038432414243z" style="fill:rgb(153,221,255); fill-opacity: 0.4"></path><path d="M-58.029568849955446,-11.135038342384917L-58.029568849955446,1.4677035684563748L-62.87764355201007,6.083005093796368z" style="fill:rgb(255,187,187); fill-opacity: 0.4"></path><path d="M-151.85411770149432,-41.04339434015511L-139.81954510647722,-39.35788256903245L-125.61805355272267,-66.01977245442521z" style="fill:rgb(238,238,238); fill-opacity: 0.4"></path><path d="M-58.029568849955446,1.4677035684563748L-58.029568849955446,-11.135038342384917L-43.49347408166173,-1.2054432484519855z" style="fill:rgb(255,187,187); fill-opacity: 0.4"></path><path d="M-130.71298991231086,-45.21966279639991L-141.37875456506333,-35.06599914721895M-130.71298991231086,-45.21966279639991L-116.76819574957321,-21.704782672675176M-130.7129893641449,-45.219663968965264L-141.37875370866507,-35.06600061321728" style="fill:none;stroke:rgb(0,0,0);stroke-width:1;stroke-linecap:round"></path><path d="M-112.87706587944828,-0.919704326654877L-62.87764419482044,6.083005003767044L-62.87764419482044,-6.519736907074247z" style="fill:rgb(153,221,255); fill-opacity: 0.4"></path><path d="M-50.98565796480216,22.352032243233236L-35.00719449827228,7.140751200387273L25.736562759335953,15.648267115186664z" style="fill:rgb(238,238,238); fill-opacity: 0.4"></path><path d="M-142.747561959162,-46.90517574008792L-142.747561959162,-19.179143536237085L-153.41332630368217,-36.75151238433994zM-141.3787537086651,-7.339968409366437L-130.7129893641449,-17.493631765114422L-130.7129893641449,-45.219663968965264z" style="fill:rgb(153,221,255); fill-opacity: 0.4"></path><path d="M-130.71298927187817,-45.21966395604277L-130.71298927187817,-17.49363175219193L-141.37875361639834,-7.339968396443943zM-62.87764355201007,6.083005093796368L-58.029568849955446,1.4677035684563748L-43.49347408166173,-1.2054432484519855z" style="fill:rgb(255,187,187); fill-opacity: 0.4"></path><path d="M25.736562759335946,-25.88831463656319L25.736562759335946,15.648267115186664M25.736562759335946,15.648267115186664L9.758099292806081,30.85954815803263" style="fill:none;stroke:rgb(0,0,0);stroke-width:1;stroke-linecap:round"></path><path d="M-141.37875361639834,-7.339968396443943L-130.71298927187817,-17.49363175219193L-116.76819533564127,-21.70478249721334z" style="fill:rgb(255,187,187); fill-opacity: 0.4"></path><path d="M-151.85411770149432,27.15818371785549L-139.81954510647722,28.843695488978156L-139.81954510647722,-39.35788256903245z" style="fill:rgb(238,238,238); fill-opacity: 0.4"></path><path d="M-62.87764419482044,-6.519736907074247L-62.87764419482044,6.083005003767044L-58.02956949276581,-11.135038432414243z" style="fill:rgb(153,221,255); fill-opacity: 0.4"></path><path d="M-58.029568849955446,-11.135038342384917L-62.87764355201007,6.083005093796368L-62.87764355201007,-6.519736817044922z" style="fill:rgb(255,187,187); fill-opacity: 0.4"></path><path d="M-35.00719449827228,-34.395830551362586L-35.00719449827228,7.140751200387273L-50.98565796480216,-19.18454950851662z" style="fill:rgb(238,238,238); fill-opacity: 0.4"></path><path d="M-62.87764533978009,6.083005016947358L-62.87764533978009,-6.519737094209122M-62.87764533978009,6.083005016947358L-43.49347265202824,-1.2054430114790204M-62.87764419482044,-6.519736907074248L-62.87764419482044,6.083005003767044" style="fill:none;stroke:rgb(0,0,0);stroke-width:1;stroke-linecap:round"></path><path d="M-58.029568849955446,-11.135038342384917L-62.87764355201007,-6.519736817044922L-43.49347408166173,-1.2054432484519855z" style="fill:rgb(255,187,187); fill-opacity: 0.4"></path><path d="M-141.3787537086651,-7.339968409366437L-153.41332630368217,-9.025480180489103L-130.7129893641449,-17.493631765114422z" style="fill:rgb(153,221,255); fill-opacity: 0.4"></path><path d="M25.736562759335953,-25.888314636563194L25.736562759335953,15.648267115186664L-35.00719449827228,-34.395830551362586z" style="fill:rgb(238,238,238); fill-opacity: 0.4"></path><path d="M-142.747561959162,-19.179143536237085L-153.41332630368217,-9.025480180489103L-153.41332630368217,-36.75151238433994z" style="fill:rgb(153,221,255); fill-opacity: 0.4"></path><path d="M-141.37875456506333,-7.339968145259239L-116.76819574957321,-21.704782672675176M-141.37875456506333,-35.06599914721895L-116.76819574957321,-21.704782672675176" style="fill:none;stroke:rgb(0,0,0);stroke-width:1;stroke-linecap:round"></path><path d="M-141.3787537086651,-35.06600061321728L-130.7129893641449,-45.219663968965264L-142.747561959162,-46.90517574008792z" style="fill:rgb(153,221,255); fill-opacity: 0.4"></path><path d="M-62.87764355201007,-6.519736817044922L-62.87764355201007,6.083005093796368L-43.49347408166173,-1.2054432484519855z" style="fill:rgb(255,187,187); fill-opacity: 0.4"></path><path d="M-62.87764533978009,-6.519737094209122L-43.49347265202824,-1.2054430114790204" style="fill:none;stroke:rgb(0,0,0);stroke-width:1;stroke-linecap:round"></path><path d="M-119.56260635005856,-31.389112840333894L-69.56318466543071,-24.386403509911975L-100.13475602968546,-49.884163500278255z" style="fill:rgb(238,238,238); fill-opacity: 0.4"></path><path d="M-130.71298927187817,-45.21966395604277L-141.37875361639834,-35.066000600294785L-116.76819533564127,-21.70478249721334z" style="fill:rgb(255,187,187); fill-opacity: 0.4"></path><path d="M-153.41332630368217,-36.75151238433994L-153.41332630368217,-9.025480180489103M-153.41332630368217,-9.025480180489103L-141.37875370866507,-7.3399684093664375" style="fill:none;stroke:rgb(0,0,0);stroke-width:1;stroke-linecap:round"></path><path d="M-151.85411770149432,-41.04339434015511L-151.85411770149432,27.15818371785549L-139.81954510647722,-39.35788256903245z" style="fill:rgb(238,238,238); fill-opacity: 0.4"></path><path d="M13.261440315991692,25.215653870893664L-47.48231694161653,16.708137956094273M-47.48231694161653,9.146492809589498L-47.48231694161653,16.708137956094273M-47.48231694161653,16.708137956094273L-50.391161762849315,19.477318871298273" style="fill:none;stroke:rgb(0,0,0);stroke-width:1;stroke-linecap:round"></path><path d="M-35.00719449827228,7.140751200387273L-50.98565796480216,22.352032243233236L-50.98565796480216,-19.18454950851662zM-69.56318466543071,-24.386403509911975L-69.56318466543071,26.11698154856324L-50.13533434505761,-42.881454169856326z" style="fill:rgb(238,238,238); fill-opacity: 0.4"></path><path d="M-141.3787537086651,-35.06600061321728L-141.3787537086651,-7.339968409366437L-130.7129893641449,-45.219663968965264z" style="fill:rgb(153,221,255); fill-opacity: 0.4"></path><path d="M-130.71298927187817,-45.21966395604277L-141.37875361639834,-7.339968396443943L-141.37875361639834,-35.066000600294785z" style="fill:rgb(255,187,187); fill-opacity: 0.4"></path><path d="M106.00305936570045,24.219232165026085L40.81769675945934,15.089643630805053M40.81769675945934,-17.23575028492724L40.81769675945934,15.089643630805053M40.81769675945934,15.089643630805053L28.382630994762504,26.927658001166478" style="fill:none;stroke:rgb(0,0,0);stroke-width:1;stroke-linecap:round"></path><path d="M-153.41332630368217,-36.75151238433994L-141.3787537086651,-35.06600061321728L-142.747561959162,-46.90517574008792z" style="fill:rgb(153,221,255); fill-opacity: 0.4"></path><path d="M13.261440315991692,17.65400872438889L-47.48231694161653,9.146492809589498M-47.48231694161653,9.146492809589498L-50.391161762849315,11.915673724793495M-141.37875370866507,-35.06600061321728L-141.37875370866507,-7.3399684093664375M-141.37875456506333,-7.339968145259239L-141.37875456506333,-35.06599914721895M-69.56318466543071,-24.386403509911975L-69.56318466543071,26.11698154856324" style="fill:none;stroke:rgb(0,0,0);stroke-width:1;stroke-linecap:round"></path><path d="M-141.37875361639834,-35.066000600294785L-141.37875361639834,-7.339968396443943L-116.76819533564127,-21.70478249721334z" style="fill:rgb(255,187,187); fill-opacity: 0.4"></path><path d="M-47.48231694161654,9.146492809589498L-47.48231694161654,16.70813795609427L-50.391161762849315,11.915673724793493z" style="fill:rgb(153,221,255); fill-opacity: 0.4"></path><path d="M-119.56260635005856,19.114272218141316L-69.56318466543071,26.11698154856324L-69.56318466543071,-24.386403509911975zM-119.56260635005856,-31.389112840333894L-119.56260635005856,19.114272218141316L-69.56318466543071,-24.386403509911975z" style="fill:rgb(238,238,238); fill-opacity: 0.4"></path><path d="M-153.41332630368217,-9.025480180489103L-141.3787537086651,-7.339968409366437L-141.3787537086651,-35.06600061321728zM-47.48231694161654,16.70813795609427L-50.391161762849315,19.477318871298266L-50.391161762849315,11.915673724793493z" style="fill:rgb(153,221,255); fill-opacity: 0.4"></path><path d="M-119.56260635005856,-31.389112840333894L-69.56318466543071,-24.386403509911975M25.736562759335946,-25.88831463656319L9.758099292806081,-10.677033593717228M-50.391161762849315,11.915673724793495L-50.391161762849315,19.477318871298273M-50.391161762849315,19.477318871298273L10.35259549475892,27.984834786097665M-151.85411770149432,-41.04339434015511L-139.81954510647722,-39.357882569032455M-50.98565796480215,-19.18454950851662L-50.98565796480215,22.35203224323324M-50.98565796480215,22.35203224323324L9.758099292806081,30.85954815803263" style="fill:none;stroke:rgb(0,0,0);stroke-width:1;stroke-linecap:round"></path><path d="M-153.41332630368217,-36.75151238433994L-153.41332630368217,-9.025480180489103L-141.3787537086651,-35.06600061321728zM13.261440315991697,25.21565387089366L-47.48231694161654,16.70813795609427L-47.48231694161654,9.146492809589498z" style="fill:rgb(153,221,255); fill-opacity: 0.4"></path><path d="M9.758099292806081,30.859548158032627L25.736562759335953,15.648267115186664L25.736562759335953,-25.888314636563194zM9.758099292806081,30.859548158032627L-50.98565796480216,22.352032243233236L25.736562759335953,15.648267115186664z" style="fill:rgb(238,238,238); fill-opacity: 0.4"></path><path d="M-50.391161762849315,19.477318871298266L-47.48231694161654,16.70813795609427L13.261440315991697,25.21565387089366z" style="fill:rgb(153,221,255); fill-opacity: 0.4"></path><path d="M-50.391161762849315,11.915673724793495L10.35259549475892,20.42318963959289M-153.41332630368217,-36.75151238433994L-141.37875370866507,-35.06600061321728" style="fill:none;stroke:rgb(0,0,0);stroke-width:1;stroke-linecap:round"></path><path d="M9.758099292806081,-10.677033593717228L25.736562759335953,-25.888314636563194L-35.00719449827228,-34.395830551362586zM106.00305936570045,24.219232165026085L40.817696759459324,15.089643630805053L40.817696759459324,-17.23575028492724z" style="fill:rgb(238,238,238); fill-opacity: 0.4"></path><path d="M-50.391161762849315,11.915673724793493L10.35259549475892,20.423189639592884L-47.48231694161654,9.146492809589498z" style="fill:rgb(153,221,255); fill-opacity: 0.4"></path><path d="M106.00305936570045,-8.10616175070621L40.81769675945934,-17.23575028492724M40.81769675945934,-17.23575028492724L28.382630994762504,-5.397735914565814" style="fill:none;stroke:rgb(0,0,0);stroke-width:1;stroke-linecap:round"></path><path d="M-50.391161762849315,11.915673724793493L-50.391161762849315,19.477318871298266L10.35259549475892,20.423189639592884zM13.261440315991697,17.65400872438889L13.261440315991697,25.21565387089366L-47.48231694161654,9.146492809589498z" style="fill:rgb(153,221,255); fill-opacity: 0.4"></path><path d="M-50.98565796480216,-19.18454950851662L9.758099292806081,-10.677033593717228L-35.00719449827228,-34.395830551362586z" style="fill:rgb(238,238,238); fill-opacity: 0.4"></path><path d="M100.64955371756835,21.437143136277577L35.46419111132722,12.307554602056543M35.46419111132722,4.745909455551769L35.46419111132722,12.307554602056543M35.46419111132722,12.307554602056543L32.55534629009445,15.076735517260541" style="fill:none;stroke:rgb(0,0,0);stroke-width:1;stroke-linecap:round"></path><path d="M10.35259549475892,27.98483478609766L-50.391161762849315,19.477318871298266L13.261440315991697,25.21565387089366zM10.35259549475892,20.423189639592884L13.261440315991697,17.65400872438889L-47.48231694161654,9.146492809589498z" style="fill:rgb(153,221,255); fill-opacity: 0.4"></path><path d="M28.382630994762508,26.927658001166478L40.817696759459324,15.089643630805053L106.00305936570045,24.219232165026085zM40.817696759459324,-17.23575028492724L40.817696759459324,15.089643630805053L28.382630994762508,-5.397735914565814z" style="fill:rgb(238,238,238); fill-opacity: 0.4"></path><path d="M100.64955371756835,13.8754979897728L35.46419111132722,4.745909455551769M35.46419111132722,4.745909455551769L32.55534629009445,7.5150903707557655M13.261440315991692,17.65400872438889L13.261440315991692,25.215653870893664M13.261440315991692,25.215653870893664L10.35259549475892,27.984834786097665M13.261441880173638,17.654009184114464L13.261441880173638,25.215654330619238M13.261441880173638,25.215654330619238L10.35259705894086,27.984835245823234M13.261441880173638,25.215654330619238L29.977180886645748,20.670517522335007" style="fill:none;stroke:rgb(0,0,0);stroke-width:1;stroke-linecap:round"></path><path d="M-50.391161762849315,19.477318871298266L10.35259549475892,27.98483478609766L10.35259549475892,20.423189639592884zM35.464191111327224,4.745909455551771L35.464191111327224,12.307554602056545L32.55534629009445,7.515090370755766z" style="fill:rgb(153,221,255); fill-opacity: 0.4"></path><path d="M-50.98565796480215,-19.18454950851662L9.758099292806081,-10.677033593717228" style="fill:none;stroke:rgb(0,0,0);stroke-width:1;stroke-linecap:round"></path><path d="M35.464191111327224,12.307554602056545L32.55534629009445,15.07673551726054L32.55534629009445,7.515090370755766z" style="fill:rgb(153,221,255); fill-opacity: 0.4"></path><path d="M13.261440315991692,17.65400872438889L10.35259549475892,20.42318963959289M13.261441880173638,17.654009184114464L10.35259705894086,20.42319009931846M13.261441880173638,17.654009184114464L29.977180886645748,20.670517522335007" style="fill:none;stroke:rgb(0,0,0);stroke-width:1;stroke-linecap:round"></path><path d="M10.35259549475892,27.98483478609766L13.261440315991697,25.21565387089366L13.261440315991697,17.65400872438889z" style="fill:rgb(153,221,255); fill-opacity: 0.4"></path><path d="M13.261441839745988,17.654008937799524L13.261441839745988,25.2156540843043L10.35259701851321,27.9848349995083z" style="fill:rgb(255,187,187); fill-opacity: 0.4"></path><path d="M-50.98565796480216,-19.18454950851662L-50.98565796480216,22.352032243233236L9.758099292806081,-10.677033593717228z" style="fill:rgb(238,238,238); fill-opacity: 0.4"></path><path d="M13.261441839745988,25.2156540843043L13.261441839745988,17.654008937799524L29.97717928562014,20.670517413361434z" style="fill:rgb(255,187,187); fill-opacity: 0.4"></path><path d="M32.55534629009445,7.5150903707557655L32.55534629009445,15.076735517260541M32.55534629009445,15.076735517260541L97.74070889633556,24.20632405148157M106.00305936570045,-8.10616175070621L106.00305936570045,24.219232165026085M106.00305936570045,24.219232165026085L93.56799360100362,36.057246535387506" style="fill:none;stroke:rgb(0,0,0);stroke-width:1;stroke-linecap:round"></path><path d="M106.00305936570045,-8.106161750706207L106.00305936570045,24.219232165026085L40.817696759459324,-17.23575028492724zM40.817696759459324,15.089643630805053L28.382630994762508,26.927658001166478L28.382630994762508,-5.397735914565814z" style="fill:rgb(238,238,238); fill-opacity: 0.4"></path><path d="M10.35259701851321,27.9848349995083L13.261441839745988,25.2156540843043L29.97717928562014,20.670517413361434z" style="fill:rgb(255,187,187); fill-opacity: 0.4"></path><path d="M9.758099292806081,-10.677033593717228L9.758099292806081,30.859548158032627L25.736562759335953,-25.888314636563194z" style="fill:rgb(238,238,238); fill-opacity: 0.4"></path><path d="M100.64955371756835,21.437143136277577L35.464191111327224,12.307554602056545L35.464191111327224,4.745909455551771z" style="fill:rgb(153,221,255); fill-opacity: 0.4"></path><path d="M-50.98565796480216,22.352032243233236L9.758099292806081,30.859548158032627L9.758099292806081,-10.677033593717228z" style="fill:rgb(238,238,238); fill-opacity: 0.4"></path><path d="M10.35259549475892,20.423189639592884L10.35259549475892,27.98483478609766L13.261440315991697,17.65400872438889z" style="fill:rgb(153,221,255); fill-opacity: 0.4"></path><path d="M13.261441839745988,17.654008937799524L10.35259701851321,27.9848349995083L10.35259701851321,20.42318985300352z" style="fill:rgb(255,187,187); fill-opacity: 0.4"></path><path d="M32.55534629009445,7.5150903707557655L97.74070889633556,16.644678904976796M10.35259549475892,20.42318963959289L10.35259549475892,27.984834786097665M10.35259705894086,27.984835245823234L10.35259705894086,20.42319009931846M10.35259705894086,27.984835245823234L29.977180886645748,20.670517522335007" style="fill:none;stroke:rgb(0,0,0);stroke-width:1;stroke-linecap:round"></path><path d="M32.55534629009445,15.07673551726054L35.464191111327224,12.307554602056545L100.64955371756835,21.437143136277577z" style="fill:rgb(153,221,255); fill-opacity: 0.4"></path><path d="M13.261441839745988,17.654008937799524L10.35259701851321,20.42318985300352L29.97717928562014,20.670517413361434z" style="fill:rgb(255,187,187); fill-opacity: 0.4"></path><path d="M9.758099292806081,-10.677033593717228L9.758099292806081,30.85954815803263" style="fill:none;stroke:rgb(0,0,0);stroke-width:1;stroke-linecap:round"></path><path d="M10.35259701851321,20.42318985300352L10.35259701851321,27.9848349995083L29.97717928562014,20.670517413361434z" style="fill:rgb(255,187,187); fill-opacity: 0.4"></path><path d="M10.35259705894086,20.42319009931846L29.977180886645748,20.670517522335007M188.04125351937049,35.70915761405373L122.85589091312937,26.5795690798327M122.85589091312937,-5.745824835899594L122.85589091312937,26.5795690798327M122.85589091312937,26.5795690798327L110.42082514843256,38.41758345019412M28.382630994762504,-5.397735914565814L28.382630994762504,26.927658001166478M28.382630994762504,26.927658001166478L93.56799360100362,36.057246535387506" style="fill:none;stroke:rgb(0,0,0);stroke-width:1;stroke-linecap:round"></path><path d="M32.55534629009445,7.515090370755766L97.74070889633556,16.644678904976796L35.464191111327224,4.745909455551771zM32.55534629009445,7.515090370755766L32.55534629009445,15.07673551726054L97.74070889633556,16.644678904976796zM100.64955371756835,13.875497989772802L100.64955371756835,21.437143136277577L35.464191111327224,4.745909455551771z" style="fill:rgb(153,221,255); fill-opacity: 0.4"></path><path d="M93.56799360100365,36.057246535387506L28.382630994762508,26.927658001166478L106.00305936570045,24.219232165026085z" style="fill:rgb(238,238,238); fill-opacity: 0.4"></path><path d="M106.00305936570045,-8.10616175070621L93.56799360100362,3.7318526196552146" style="fill:none;stroke:rgb(0,0,0);stroke-width:1;stroke-linecap:round"></path><path d="M97.74070889633556,24.20632405148157L32.55534629009445,15.07673551726054L100.64955371756835,21.437143136277577zM97.74070889633556,16.644678904976796L100.64955371756835,13.875497989772802L35.464191111327224,4.745909455551771z" style="fill:rgb(153,221,255); fill-opacity: 0.4"></path><path d="M93.56799360100365,36.057246535387506L106.00305936570045,24.219232165026085L106.00305936570045,-8.106161750706207zM93.56799360100365,3.731852619655217L106.00305936570045,-8.106161750706207L40.817696759459324,-17.23575028492724z" style="fill:rgb(238,238,238); fill-opacity: 0.4"></path><path d="M100.64955371756835,13.8754979897728L100.64955371756835,21.437143136277577M100.64955371756835,21.437143136277577L97.74070889633556,24.20632405148157M100.64955506338096,13.875498206831447L100.64955506338096,21.437143153021033M100.64955506338096,21.437143153021033L97.7407102421482,24.206324068225026M100.64955506338096,21.437143153021033L116.04795736959105,21.401247354066758" style="fill:none;stroke:rgb(0,0,0);stroke-width:1;stroke-linecap:round"></path><path d="M32.55534629009445,15.07673551726054L97.74070889633556,24.20632405148157L97.74070889633556,16.644678904976796z" style="fill:rgb(153,221,255); fill-opacity: 0.4"></path><path d="M28.382630994762508,-5.397735914565814L93.56799360100365,3.731852619655217L40.817696759459324,-17.23575028492724z" style="fill:rgb(238,238,238); fill-opacity: 0.4"></path><path d="M183.2318542333587,40.15563209655814L118.04649162711755,31.026043562337115M118.04649162711755,23.46439841583234L118.04649162711755,31.026043562337115M118.04649162711755,31.026043562337115L115.13764680588477,33.79522447754111" style="fill:none;stroke:rgb(0,0,0);stroke-width:1;stroke-linecap:round"></path><path d="M188.04125351937049,35.70915761405373L122.85589091312936,26.5795690798327L122.85589091312936,-5.745824835899595z" style="fill:rgb(238,238,238); fill-opacity: 0.4"></path><path d="M188.04125351937049,3.3837636983214345L122.85589091312937,-5.745824835899594M122.85589091312937,-5.745824835899594L110.42082514843256,6.092189534461829M100.64955371756835,13.8754979897728L97.74070889633556,16.644678904976796M100.64955506338096,13.875498206831447L97.7407102421482,16.64467912203544M100.64955506338096,13.875498206831447L116.04795736959105,21.401247354066758" style="fill:none;stroke:rgb(0,0,0);stroke-width:1;stroke-linecap:round"></path><path d="M97.74070889633556,24.20632405148157L100.64955371756835,21.437143136277577L100.64955371756835,13.875497989772802z" style="fill:rgb(153,221,255); fill-opacity: 0.4"></path><path d="M100.64955393771166,13.87549802060515L100.64955393771166,21.437143167109927L97.7407091164789,24.206324082313923z" style="fill:rgb(255,187,187); fill-opacity: 0.4"></path><path d="M28.382630994762504,-5.397735914565814L93.56799360100362,3.7318526196552146M183.2318542333587,32.59398695005337L118.04649162711755,23.46439841583234M118.04649162711755,23.46439841583234L115.13764680588477,26.233579331036335" style="fill:none;stroke:rgb(0,0,0);stroke-width:1;stroke-linecap:round"></path><path d="M100.64955393771166,21.437143167109927L100.64955393771166,13.87549802060515L116.04796263423756,21.40124790460145z" style="fill:rgb(255,187,187); fill-opacity: 0.4"></path><path d="M118.04649162711755,23.46439841583234L118.04649162711755,31.026043562337115L115.13764680588477,26.233579331036335z" style="fill:rgb(153,221,255); fill-opacity: 0.4"></path><path d="M97.7407091164789,24.206324082313923L100.64955393771166,21.437143167109927L116.04796263423756,21.40124790460145z" style="fill:rgb(255,187,187); fill-opacity: 0.4"></path><path d="M97.74070889633556,16.644678904976796L97.74070889633556,24.20632405148157L100.64955371756835,13.875497989772802z" style="fill:rgb(153,221,255); fill-opacity: 0.4"></path><path d="M100.64955393771166,13.87549802060515L97.7407091164789,24.206324082313923L97.7407091164789,16.644678935809146z" style="fill:rgb(255,187,187); fill-opacity: 0.4"></path><path d="M28.382630994762508,-5.397735914565814L28.382630994762508,26.927658001166478L93.56799360100365,3.731852619655217z" style="fill:rgb(238,238,238); fill-opacity: 0.4"></path><path d="M97.74070889633556,16.644678904976796L97.74070889633556,24.20632405148157M97.7407102421482,24.206324068225026L97.7407102421482,16.64467912203544M97.7407102421482,24.206324068225026L116.04795736959105,21.401247354066758" style="fill:none;stroke:rgb(0,0,0);stroke-width:1;stroke-linecap:round"></path><path d="M118.04649162711755,31.026043562337115L115.13764680588477,33.79522447754111L115.13764680588477,26.233579331036335z" style="fill:rgb(153,221,255); fill-opacity: 0.4"></path><path d="M110.42082514843256,38.41758345019412L122.85589091312936,26.5795690798327L188.04125351937049,35.70915761405373z" style="fill:rgb(238,238,238); fill-opacity: 0.4"></path><path d="M100.64955393771166,13.87549802060515L97.7407091164789,16.644678935809146L116.04796263423756,21.40124790460145z" style="fill:rgb(255,187,187); fill-opacity: 0.4"></path><path d="M122.85589091312936,-5.745824835899595L122.85589091312936,26.5795690798327L110.42082514843256,6.092189534461828z" style="fill:rgb(238,238,238); fill-opacity: 0.4"></path><path d="M115.13764680588477,26.233579331036335L115.13764680588477,33.79522447754111M115.13764680588477,33.79522447754111L180.32300941212588,42.92481301176214" style="fill:none;stroke:rgb(0,0,0);stroke-width:1;stroke-linecap:round"></path><path d="M97.7407091164789,16.644678935809146L97.7407091164789,24.206324082313923L116.04796263423756,21.40124790460145z" style="fill:rgb(255,187,187); fill-opacity: 0.4"></path><path d="M97.7407102421482,16.64467912203544L116.04795736959105,21.401247354066758" style="fill:none;stroke:rgb(0,0,0);stroke-width:1;stroke-linecap:round"></path><path d="M183.2318542333587,40.15563209655814L118.04649162711755,31.026043562337115L118.04649162711755,23.46439841583234z" style="fill:rgb(153,221,255); fill-opacity: 0.4"></path><path d="M28.382630994762508,26.927658001166478L93.56799360100365,36.057246535387506L93.56799360100365,3.731852619655217z" style="fill:rgb(238,238,238); fill-opacity: 0.4"></path><path d="M115.13764680588477,26.233579331036335L180.32300941212588,35.36316786525737" style="fill:none;stroke:rgb(0,0,0);stroke-width:1;stroke-linecap:round"></path><path d="M115.13764680588477,33.79522447754111L118.04649162711755,31.026043562337115L183.2318542333587,40.15563209655814z" style="fill:rgb(153,221,255); fill-opacity: 0.4"></path><path d="M93.56799360100365,3.731852619655217L93.56799360100365,36.057246535387506L106.00305936570045,-8.106161750706207z" style="fill:rgb(238,238,238); fill-opacity: 0.4"></path><path d="M188.04125351937049,3.3837636983214345L188.04125351937049,35.70915761405373M188.04125351937049,35.70915761405373L175.60618775467367,47.54717198441515" style="fill:none;stroke:rgb(0,0,0);stroke-width:1;stroke-linecap:round"></path><path d="M188.04125351937049,3.3837636983214354L188.04125351937049,35.70915761405373L122.85589091312936,-5.745824835899595z" style="fill:rgb(238,238,238); fill-opacity: 0.4"></path><path d="M93.56799360100362,3.7318526196552146L93.56799360100362,36.057246535387506" style="fill:none;stroke:rgb(0,0,0);stroke-width:1;stroke-linecap:round"></path><path d="M122.85589091312936,26.5795690798327L110.42082514843256,38.41758345019412L110.42082514843256,6.092189534461828z" style="fill:rgb(238,238,238); fill-opacity: 0.4"></path><path d="M115.13764680588477,26.233579331036335L180.32300941212588,35.36316786525737L118.04649162711755,23.46439841583234zM115.13764680588477,26.233579331036335L115.13764680588477,33.79522447754111L180.32300941212588,35.36316786525737zM183.2318542333587,32.59398695005337L183.2318542333587,40.15563209655814L118.04649162711755,23.46439841583234z" style="fill:rgb(153,221,255); fill-opacity: 0.4"></path><path d="M265.63784362801863,46.57701062623802L204.8940863704104,38.06949471143863M204.8940863704104,5.744100795706337L204.8940863704104,38.06949471143863M204.8940863704104,38.06949471143863L192.45902060571356,49.90750908180005M110.42082514843256,6.092189534461829L110.42082514843256,38.41758345019412M110.42082514843256,38.41758345019412L175.60618775467367,47.54717198441515" style="fill:none;stroke:rgb(0,0,0);stroke-width:1;stroke-linecap:round"></path><path d="M180.32300941212588,42.92481301176215L115.13764680588477,33.79522447754111L183.2318542333587,40.15563209655814zM180.32300941212588,35.36316786525737L183.2318542333587,32.59398695005337L118.04649162711755,23.46439841583234z" style="fill:rgb(153,221,255); fill-opacity: 0.4"></path><path d="M183.23184877871404,32.59398621284676L183.23184877871404,40.155630558090785M183.23184877871404,40.155630558090785L180.32300395748132,42.92481147329478M183.23184877871404,40.155630558090785L198.6302574463432,40.11973612435241M183.2318542333587,32.59398695005337L183.2318542333587,40.15563209655814M183.2318542333587,40.15563209655814L180.32300941212588,42.92481301176214" style="fill:none;stroke:rgb(0,0,0);stroke-width:1;stroke-linecap:round"></path><path d="M115.13764680588477,33.79522447754111L180.32300941212588,42.92481301176215L180.32300941212588,35.36316786525737z" style="fill:rgb(153,221,255); fill-opacity: 0.4"></path><path d="M175.60618775467364,47.54717198441516L110.42082514843256,38.41758345019412L188.04125351937049,35.70915761405373z" style="fill:rgb(238,238,238); fill-opacity: 0.4"></path><path d="M188.04125351937049,3.3837636983214345L175.60618775467367,15.221778068682857" style="fill:none;stroke:rgb(0,0,0);stroke-width:1;stroke-linecap:round"></path><path d="M175.60618775467364,47.54717198441516L188.04125351937049,35.70915761405373L188.04125351937049,3.3837636983214354z" style="fill:rgb(238,238,238); fill-opacity: 0.4"></path><path d="M183.23184877871404,32.59398621284676L180.32300395748132,35.363167128050755M183.23184877871404,32.59398621284676L198.6302574463432,40.11973612435241M183.2318542333587,32.59398695005337L180.32300941212588,35.36316786525737" style="fill:none;stroke:rgb(0,0,0);stroke-width:1;stroke-linecap:round"></path><path d="M175.60618775467364,15.221778068682857L188.04125351937049,3.3837636983214354L122.85589091312936,-5.745824835899595z" style="fill:rgb(238,238,238); fill-opacity: 0.4"></path><path d="M180.32300941212588,42.92481301176215L183.2318542333587,40.15563209655814L183.2318542333587,32.59398695005337z" style="fill:rgb(153,221,255); fill-opacity: 0.4"></path><path d="M183.23185445350202,32.593986980885724L183.23185445350202,40.155632127390504L180.32300963226925,42.924813042594494zM183.23185445350202,40.155632127390504L183.23185445350202,32.593986980885724L198.63026315002793,40.11973686488202z" style="fill:rgb(255,187,187); fill-opacity: 0.4"></path><path d="M110.42082514843256,6.092189534461828L175.60618775467364,15.221778068682857L122.85589091312936,-5.745824835899595zM265.63784362801863,46.57701062623803L204.8940863704104,38.06949471143864L204.8940863704104,5.744100795706338z" style="fill:rgb(238,238,238); fill-opacity: 0.4"></path><path d="M180.32300963226925,42.924813042594494L183.23185445350202,40.155632127390504L198.63026315002793,40.11973686488202z" style="fill:rgb(255,187,187); fill-opacity: 0.4"></path><path d="M180.32300941212588,35.36316786525737L180.32300941212588,42.92481301176215L183.2318542333587,32.59398695005337z" style="fill:rgb(153,221,255); fill-opacity: 0.4"></path><path d="M183.23185445350202,32.593986980885724L180.32300963226925,42.924813042594494L180.32300963226925,35.36316789608972z" style="fill:rgb(255,187,187); fill-opacity: 0.4"></path><path d="M265.63784362801863,14.25161671050573L204.8940863704104,5.744100795706337M204.8940863704104,5.744100795706337L192.45902060571356,17.58211516606776M180.32300395748132,42.92481147329478L180.32300395748132,35.363167128050755M180.32300395748132,42.92481147329478L198.6302574463432,40.11973612435241M180.32300941212588,35.36316786525737L180.32300941212588,42.92481301176214M110.42082514843256,6.092189534461829L175.60618775467367,15.221778068682857" style="fill:none;stroke:rgb(0,0,0);stroke-width:1;stroke-linecap:round"></path><path d="M183.23185445350202,32.593986980885724L180.32300963226925,35.36316789608972L198.63026315002793,40.11973686488202zM180.32300963226925,35.36316789608972L180.32300963226925,42.924813042594494L198.63026315002793,40.11973686488202z" style="fill:rgb(255,187,187); fill-opacity: 0.4"></path><path d="M180.32300395748132,35.363167128050755L198.6302574463432,40.11973612435241" style="fill:none;stroke:rgb(0,0,0);stroke-width:1;stroke-linecap:round"></path><path d="M110.42082514843256,6.092189534461828L110.42082514843256,38.41758345019412L175.60618775467364,15.221778068682857zM192.45902060571356,49.90750908180006L204.8940863704104,38.06949471143864L265.63784362801863,46.57701062623803zM204.8940863704104,5.744100795706338L204.8940863704104,38.06949471143864L192.45902060571356,17.58211516606776zM110.42082514843256,38.41758345019412L175.60618775467364,47.54717198441516L175.60618775467364,15.221778068682857z" style="fill:rgb(238,238,238); fill-opacity: 0.4"></path><path d="M265.63784362801863,14.25161671050573L265.63784362801863,46.57701062623802M265.63784362801863,46.57701062623802L253.2027778633218,58.41502499659944" style="fill:none;stroke:rgb(0,0,0);stroke-width:1;stroke-linecap:round"></path><path d="M175.60618775467364,15.221778068682857L175.60618775467364,47.54717198441516L188.04125351937049,3.3837636983214354zM265.63784362801863,14.25161671050573L265.63784362801863,46.57701062623803L204.8940863704104,5.744100795706338z" style="fill:rgb(238,238,238); fill-opacity: 0.4"></path><path d="M175.60618775467367,15.221778068682857L175.60618775467367,47.54717198441515" style="fill:none;stroke:rgb(0,0,0);stroke-width:1;stroke-linecap:round"></path><path d="M204.8940863704104,38.06949471143864L192.45902060571356,49.90750908180006L192.45902060571356,17.58211516606776z" style="fill:rgb(238,238,238); fill-opacity: 0.4"></path><path d="M192.45902060571356,17.58211516606776L192.45902060571356,49.90750908180005M192.45902060571356,49.90750908180005L253.2027778633218,58.41502499659944M291.0950366828626,80.57416443954092L282.33391778581483,79.34711886624874M282.33391778581483,-3.931840448737576L282.33391778581483,79.34711886624874M282.33391778581483,79.34711886624874L278.97348861982385,82.54620196804622M291.0950366828626,-2.7047948754453786L291.0950366828626,80.57416443954092M291.0950366828626,80.57416443954092L287.7346075168716,83.77324754133843" style="fill:none;stroke:rgb(0,0,0);stroke-width:1;stroke-linecap:round"></path><path d="M278.97348861982385,82.54620196804622L282.3339177858148,79.34711886624874L291.09503668286254,80.57416443954092z" style="fill:rgb(238,238,238); fill-opacity: 0.4"></path><path d="M265.63784362801863,14.25161671050573L253.2027778633218,26.089631080867154" style="fill:none;stroke:rgb(0,0,0);stroke-width:1;stroke-linecap:round"></path><path d="M253.2027778633218,58.41502499659945L192.45902060571356,49.90750908180006L265.63784362801863,46.57701062623803zM253.2027778633218,58.41502499659945L265.63784362801863,46.57701062623803L265.63784362801863,14.25161671050573zM253.2027778633218,26.089631080867154L265.63784362801863,14.25161671050573L204.8940863704104,5.744100795706338zM287.7346075168716,83.77324754133843L278.97348861982385,82.54620196804622L291.09503668286254,80.57416443954092z" style="fill:rgb(238,238,238); fill-opacity: 0.4"></path><path d="M278.97348861982385,-0.7327573469400763L278.97348861982385,82.54620196804622M278.97348861982385,82.54620196804622L287.7346075168716,83.77324754133843" style="fill:none;stroke:rgb(0,0,0);stroke-width:1;stroke-linecap:round"></path><path d="M192.45902060571356,17.58211516606776L253.2027778633218,26.089631080867154L204.8940863704104,5.744100795706338z" style="fill:rgb(238,238,238); fill-opacity: 0.4"></path><path d="M316.7089870647813,80.2466189361222L307.94786816773353,79.01957336283002M307.94786816773353,3.570470013355541L307.94786816773353,79.01957336283002M307.94786816773353,79.01957336283002L304.5874390017426,82.21865646462751M287.7346075168716,0.49428822635212133L287.7346075168716,83.77324754133843" style="fill:none;stroke:rgb(0,0,0);stroke-width:1;stroke-linecap:round"></path><path d="M291.09503668286254,80.57416443954092L282.3339177858148,79.34711886624874L282.3339177858148,-3.9318404487375793z" style="fill:rgb(238,238,238); fill-opacity: 0.4"></path><path d="M192.45902060571356,17.58211516606776L253.2027778633218,26.089631080867154M316.7089870647813,4.797515586647738L316.7089870647813,80.2466189361222M316.7089870647813,80.2466189361222L313.3485578987904,83.44570203791969" style="fill:none;stroke:rgb(0,0,0);stroke-width:1;stroke-linecap:round"></path><path d="M304.5874390017426,82.21865646462751L307.94786816773353,79.01957336283002L316.7089870647813,80.2466189361222z" style="fill:rgb(238,238,238); fill-opacity: 0.4"></path><path d="M264.64351346216984,37.06486072271796L274.1934510895505,38.402384939498376" style="fill:none;stroke:rgb(0,0,0);stroke-width:1;stroke-linecap:round"></path><path d="M192.45902060571356,17.58211516606776L192.45902060571356,49.90750908180006L253.2027778633218,26.089631080867154zM282.3339177858148,79.34711886624874L278.97348861982385,82.54620196804622L278.97348861982385,-0.7327573469400795zM287.7346075168716,83.77324754133843L291.09503668286254,80.57416443954092L291.09503668286254,-2.7047948754453817zM313.3485578987904,83.44570203791969L304.5874390017426,82.21865646462751L316.7089870647813,80.2466189361222zM192.45902060571356,49.90750908180006L253.2027778633218,58.41502499659945L253.2027778633218,26.089631080867154z" style="fill:rgb(238,238,238); fill-opacity: 0.4"></path><path d="M304.5874390017426,6.76955311515304L304.5874390017426,82.21865646462751M304.5874390017426,82.21865646462751L313.3485578987904,83.44570203791969" style="fill:none;stroke:rgb(0,0,0);stroke-width:1;stroke-linecap:round"></path><path d="M273.42498556424084,39.78303064440058L274.1934510895505,40.50284192463859L279.8110614585979,39.189163890545686zM274.6683888848204,36.250945169801604L273.71851329428057,37.15521388085171L279.8110614585979,39.189163890545686zM273.71851329428057,37.15521388085171L273.42498556424084,39.78303064440058L279.8110614585979,39.189163890545686z" style="fill:rgb(0,0,0)"></path><path d="M253.2027778633218,26.089631080867154L253.2027778633218,58.41502499659945L265.63784362801863,14.25161671050573zM278.97348861982385,82.54620196804622L287.7346075168716,83.77324754133843L287.7346075168716,0.4942882263521181z" style="fill:rgb(238,238,238); fill-opacity: 0.4"></path><path d="M253.2027778633218,26.089631080867154L253.2027778633218,58.41502499659944" style="fill:none;stroke:rgb(0,0,0);stroke-width:1;stroke-linecap:round"></path><path d="M316.7089870647813,80.2466189361222L307.94786816773353,79.01957336283002L307.94786816773353,3.570470013355546z" style="fill:rgb(238,238,238); fill-opacity: 0.4"></path><path d="M313.3485578987904,7.996598688445234L313.3485578987904,83.44570203791969M290.25746384408853,40.65224320205517L299.8074014714692,41.98976741883558" style="fill:none;stroke:rgb(0,0,0);stroke-width:1;stroke-linecap:round"></path><path d="M291.09503668286254,-2.7047948754453817L291.09503668286254,80.57416443954092L282.3339177858148,-3.9318404487375793zM282.3339177858148,-3.9318404487375793L282.3339177858148,79.34711886624874L278.97348861982385,-0.7327573469400795zM307.94786816773353,79.01957336283002L304.5874390017426,82.21865646462751L304.5874390017426,6.7695531151530455zM313.3485578987904,83.44570203791969L316.7089870647813,80.2466189361222L316.7089870647813,4.7975155866477355z" style="fill:rgb(238,238,238); fill-opacity: 0.4"></path><path d="M299.0389359461596,43.370413123737784L299.8074014714692,44.09022440397579L305.4250118405166,42.77654636988289zM300.2823392667391,39.838327649138805L299.33246367619927,40.74259636018891L305.4250118405166,42.77654636988289zM299.33246367619927,40.74259636018891L299.0389359461596,43.370413123737784L305.4250118405166,42.77654636988289z" style="fill:rgb(0,0,0)"></path><path d="M287.7346075168716,0.4942882263521181L287.7346075168716,83.77324754133843L291.09503668286254,-2.7047948754453817zM304.5874390017426,82.21865646462751L313.3485578987904,83.44570203791969L313.3485578987904,7.996598688445236zM278.97348861982385,-0.7327573469400795L278.97348861982385,82.54620196804622L287.7346075168716,0.4942882263521181zM316.7089870647813,4.7975155866477355L316.7089870647813,80.2466189361222L307.94786816773353,3.570470013355546z" style="fill:rgb(238,238,238); fill-opacity: 0.4"></path><path d="M291.0950366828626,-2.7047948754453786L282.33391778581483,-3.931840448737576M282.33391778581483,-3.931840448737576L278.97348861982385,-0.7327573469400763" style="fill:none;stroke:rgb(0,0,0);stroke-width:1;stroke-linecap:round"></path><path d="M307.94786816773353,3.570470013355546L307.94786816773353,79.01957336283002L304.5874390017426,6.7695531151530455z" style="fill:rgb(238,238,238); fill-opacity: 0.4"></path><path d="M291.0950366828626,-2.7047948754453786L287.7346075168716,0.49428822635212133" style="fill:none;stroke:rgb(0,0,0);stroke-width:1;stroke-linecap:round"></path><path d="M287.7346075168716,0.4942882263521181L291.09503668286254,-2.7047948754453817L282.3339177858148,-3.9318404487375793zM313.3485578987904,7.996598688445236L313.3485578987904,83.44570203791969L316.7089870647813,4.7975155866477355zM278.97348861982385,-0.7327573469400795L287.7346075168716,0.4942882263521181L282.3339177858148,-3.9318404487375793zM304.5874390017426,6.7695531151530455L304.5874390017426,82.21865646462751L313.3485578987904,7.996598688445236z" style="fill:rgb(238,238,238); fill-opacity: 0.4"></path><path d="M316.7089870647813,4.797515586647738L307.94786816773353,3.570470013355541M307.94786816773353,3.570470013355541L304.5874390017426,6.76955311515304M278.97348861982385,-0.7327573469400763L287.7346075168716,0.49428822635212133M316.7089870647813,4.797515586647738L313.3485578987904,7.996598688445234" style="fill:none;stroke:rgb(0,0,0);stroke-width:1;stroke-linecap:round"></path><path d="M313.3485578987904,7.996598688445236L316.7089870647813,4.7975155866477355L307.94786816773353,3.570470013355546zM304.5874390017426,6.7695531151530455L313.3485578987904,7.996598688445236L307.94786816773353,3.570470013355546z" style="fill:rgb(238,238,238); fill-opacity: 0.4"></path><path d="M304.5874390017426,6.76955311515304L313.3485578987904,7.996598688445234" style="fill:none;stroke:rgb(0,0,0);stroke-width:1;stroke-linecap:round"></path></svg>