<svg height="512pt" viewBox="0 -39 512.001 512" width="512pt" xmlns="http://www.w3.org/2000/svg"><path d="m429.816406 176.851562c-.742187 0-1.480468.035157-2.21875.054688.207032-3.332031.328125-6.6875.328125-10.070312 0-88.019532-71.359375-159.378907-159.378906-159.378907-67.148437 0-124.585937 41.527344-148.0625 100.292969-1.230469-.039062-2.460937-.09375-3.707031-.09375-60.351563.003906-109.277344 48.929688-109.277344 109.28125s48.925781 109.277344 109.277344 109.277344h313.039062c41.246094 0 74.683594-33.433594 74.683594-74.679688s-33.4375-74.683594-74.683594-74.683594zm0 0" fill="#ededed"/><path d="m429.816406 176.851562c-.742187 0-1.480468.035157-2.21875.054688.207032-3.332031.328125-6.6875.328125-10.070312 0-88.019532-71.359375-159.378907-159.378906-159.378907-8.511719 0-16.863281.671875-25.011719 1.957031 76.15625 11.988282 134.402344 77.902344 134.402344 157.421876 0 3.382812-.121094 6.738281-.328125 10.070312.738281-.023438 1.476563-.054688 2.21875-.054688 41.246094 0 74.683594 33.4375 74.683594 74.683594s-33.4375 74.679688-74.683594 74.679688h49.988281c41.246094 0 74.683594-33.433594 74.683594-74.679688s-33.4375-74.683594-74.683594-74.683594zm0 0" fill="#d6d6d6"/><path d="m380.5 222.09375c-24.300781-10.085938-41.269531-32.929688-43.59375-59.535156-.316406-3.640625-3.410156-6.40625-7.0625-6.386719l-73.886719.433594-1.5.007812-73.882812.433594c-3.695313.023437-6.714844 2.894531-6.996094 6.578125-2.050781 26.609375-18.769531 49.621094-42.953125 59.960938-4.097656 1.753906-6.558594 5.980468-6.09375 10.410156 3.390625 32.433594 23.144531 142.871094 130.828125 192.542968.449219.207032.941406.3125 1.433594.308594.492187-.003906.984375-.113281 1.429687-.324218 107.089844-50.929688 125.546875-161.582032 128.558594-194.058594.414062-4.464844-2.140625-8.652344-6.28125-10.371094zm0 0" fill="#676a75"/><path d="m380.5 222.09375c-24.300781-10.085938-41.269531-32.929688-43.59375-59.535156-.316406-3.640625-3.410156-6.40625-7.0625-6.386719l-44.40625.261719c-.007812 34.007812 19.441406 69.234375 45.023438 79.875 4.152343 1.726562 6.75 5.910156 6.335937 10.390625-2.65625 28.609375-17.308594 117.886719-93.976563 173.558593 4.046876 2.183594 8.214844 4.289063 12.539063 6.28125.449219.207032.941406.3125 1.433594.308594.496093 0 .984375-.113281 1.429687-.324218 107.089844-50.929688 125.546875-161.582032 128.558594-194.058594.414062-4.464844-2.140625-8.652344-6.28125-10.371094zm0 0" fill="#3c3f4e"/><path d="m254.257812 395.957031c-74.296874-39.789062-95.175781-114.59375-100.976562-150.183593-.328125-2.003907.585938-4.007813 2.328125-5.054688 19.679687-11.878906 33.960937-30.734375 40.109375-52.75.597656-2.140625 2.527344-3.632812 4.75-3.644531l109.796875-.644531c2.222656-.011719 4.171875 1.457031 4.796875 3.589843 6.402344 21.9375 20.902344 40.625 40.726562 52.273438 1.75 1.03125 2.6875 3.019531 2.382813 5.03125-5.378906 35.644531-25.386719 110.691406-99.207031 151.355469-1.457032.804687-3.238282.8125-4.707032.027343zm0 0" fill="#a4daff"/><path d="m355.789062 239.542969c-19.824218-11.644531-34.324218-30.335938-40.726562-52.273438-.625-2.136719-2.574219-3.601562-4.796875-3.589843l-46.085937.269531c5.867187 23.371093 20.804687 43.363281 41.621093 55.59375 1.75 1.03125 2.6875 3.019531 2.382813 5.027343-4.789063 31.746094-21.179688 94.734376-76.84375 136.863282 7.011718 5.207031 14.628906 10.085937 22.917968 14.523437 1.46875.785157 3.25.777344 4.707032-.027343 73.820312-40.667969 93.828125-115.710938 99.207031-151.359376.304687-2.007812-.632813-3.996093-2.382813-5.027343zm0 0" fill="#53b4e4"/><path d="m247.1875 322.222656-30.582031-29.03125c-3.003907-2.855468-3.125-7.601562-.273438-10.605468 2.851563-3.003907 7.597657-3.125 10.601563-.273438l24.101562 22.882812 43.558594-65.742187c2.289062-3.453125 6.945312-4.398437 10.394531-2.109375 3.453125 2.285156 4.398438 6.941406 2.109375 10.394531 0 0-48.464844 73.148438-48.492187 73.191407-2.488281 3.75-8.128907 4.453124-11.417969 1.292968zm0 0"/><path d="m252.21875 433.390625c-111.265625-51.972656-131.632812-164.992187-135.148438-198.570313-.808593-7.757812 3.453126-15.027343 10.605469-18.085937 21.875-9.355469 36.597657-29.910156 38.425781-53.644531.585938-7.648438 6.792969-13.453125 14.429688-13.5l149.269531-.875h.082031c7.488282 0 13.847657 5.796875 14.496094 13.238281 2.070313 23.722656 17.015625 44.132813 38.996094 53.257813 7.226562 2.996093 11.597656 10.226562 10.878906 17.988281-3.121094 33.617187-22.132812 146.941406-132.808594 200.140625-2.652343 1.273437-6.570312 1.292968-9.226562.050781zm-71.191406-268.804687c-2.375 29.179687-20.53125 54.425781-47.453125 65.941406-1.070313.457031-1.707031 1.554687-1.585938 2.730468 3.285157 31.410157 21.972657 137.191407 124.757813 185.695313 102.199218-49.703125 119.652344-155.695313 122.570312-187.140625.109375-1.179688-.570312-2.285156-1.691406-2.753906-27.023438-11.214844-45.4375-36.226563-48.148438-65.34375zm0 0"/><path d="m250.71875 402.609375c-33.546875-18.339844-60.359375-44.867187-79.230469-79.707031-15.65625-28.90625-22.566406-57.21875-25.609375-75.878906-.824218-5.0625 1.472656-10.042969 5.855469-12.6875 18.042969-10.886719 31.097656-28.054688 36.761719-48.34375 1.488281-5.339844 6.398437-9.09375 11.929687-9.125l109.796875-.644532c5.554688.003906 10.484375 3.660156 12.039063 8.984375 5.902343 20.21875 19.15625 37.234375 37.328125 47.910157 4.410156 2.59375 6.765625 7.542968 6 12.613281-2.820313 18.695312-9.398438 47.082031-24.71875 76.175781-18.460938 35.058594-44.960938 61.898438-78.285156 80.632812-3.167969 1.78125-7.710938 2.34375-11.867188.070313zm-89.757812-156.339844c2.988281 17.511719 9.515624 43.269531 23.714843 69.492188 17.21875 31.789062 41.402344 56.328125 71.890625 72.960937 30.292969-16.992187 54.1875-41.816406 71.03125-73.804687 13.894532-26.390625 20.117188-52.21875 22.898438-69.757813-20.171875-12.335937-35.027344-31.375-42.085938-53.925781l-106 .621094c-6.789062 22.628906-21.421875 41.84375-41.449218 54.414062zm0 0"/><path d="m429.816406 333.757812h-35.421875c-4.144531 0-7.5-3.355468-7.5-7.5 0-4.140624 3.355469-7.5 7.5-7.5h35.421875c37.046875 0 67.183594-30.136718 67.183594-67.183593 0-37.042969-30.136719-67.414063-67.183594-67.183594-8.566406.054687-9.316406-5.570313-9.394531-17.511719-.53125-83.742187-68.132813-151.878906-151.875-151.878906-61.148437 0-118.484375 38.964844-141.097656 95.574219-1.171875 2.933593-4.367188 4.621093-10.671875 4.625-56.121094.035156-101.777344 45.660156-101.777344 101.777343 0 56.121094 45.65625 101.78125 101.777344 101.78125 4.144531 0 7.5 3.359376 7.5 7.5 0 4.140626-3.355469 7.5-7.5 7.5-64.390625 0-116.777344-52.386718-116.777344-116.78125 0-63.972656 51.707031-116.097656 115.527344-116.769531 35.972656-86.511719 118.992187-100.207031 153.019531-100.207031 92.015625 0 166.878906 74.863281 166.878906 166.878906 0 .898438-.011719 1.796875-.023437 2.699219 42.722656 2.878906 76.597656 38.554687 76.597656 81.996094 0 45.316406-36.867188 82.183593-82.183594 82.183593zm0 0"/></svg>